<mxfile host="app.diagrams.net" agent="Mozilla/5.0 (Windows NT 10.0; Win64; x64) AppleWebKit/537.36 (KHTML, like Gecko) Chrome/136.0.0.0 Safari/537.36 Edg/136.0.0.0" version="26.2.14">
  <diagram id="prtHgNgQTEPvFCAcTncT" name="Page-1">
    <mxGraphModel dx="980" dy="530" grid="1" gridSize="10" guides="1" tooltips="1" connect="1" arrows="1" fold="1" page="1" pageScale="1" pageWidth="827" pageHeight="1169" math="0" shadow="0">
      <root>
        <mxCell id="0" />
        <mxCell id="1" parent="0" />
        <mxCell id="QJHk6vvVABnqYg-S65-f-26" style="edgeStyle=orthogonalEdgeStyle;rounded=0;orthogonalLoop=1;jettySize=auto;html=1;exitX=0;exitY=0.25;exitDx=0;exitDy=0;" edge="1" parent="1" source="QJHk6vvVABnqYg-S65-f-1">
          <mxGeometry relative="1" as="geometry">
            <mxPoint x="210" y="140" as="targetPoint" />
            <Array as="points">
              <mxPoint x="430" y="345" />
              <mxPoint x="430" y="140" />
            </Array>
          </mxGeometry>
        </mxCell>
        <mxCell id="QJHk6vvVABnqYg-S65-f-1" value="데이터베이스" style="rounded=0;whiteSpace=wrap;html=1;" vertex="1" parent="1">
          <mxGeometry x="590" y="330" width="120" height="60" as="geometry" />
        </mxCell>
        <mxCell id="QJHk6vvVABnqYg-S65-f-2" value="메인" style="ellipse;whiteSpace=wrap;html=1;" vertex="1" parent="1">
          <mxGeometry x="150" y="160" width="120" height="80" as="geometry" />
        </mxCell>
        <mxCell id="QJHk6vvVABnqYg-S65-f-3" value="제휴식당" style="ellipse;whiteSpace=wrap;html=1;" vertex="1" parent="1">
          <mxGeometry x="40" y="330" width="120" height="80" as="geometry" />
        </mxCell>
        <mxCell id="QJHk6vvVABnqYg-S65-f-4" value="마이페이지" style="ellipse;whiteSpace=wrap;html=1;" vertex="1" parent="1">
          <mxGeometry x="250" y="330" width="120" height="80" as="geometry" />
        </mxCell>
        <mxCell id="QJHk6vvVABnqYg-S65-f-10" style="edgeStyle=orthogonalEdgeStyle;rounded=0;orthogonalLoop=1;jettySize=auto;html=1;entryX=0.5;entryY=0;entryDx=0;entryDy=0;" edge="1" parent="1" source="QJHk6vvVABnqYg-S65-f-5" target="QJHk6vvVABnqYg-S65-f-2">
          <mxGeometry relative="1" as="geometry" />
        </mxCell>
        <mxCell id="QJHk6vvVABnqYg-S65-f-18" value="입력한 아이디, 비번" style="edgeStyle=orthogonalEdgeStyle;rounded=0;orthogonalLoop=1;jettySize=auto;html=1;entryX=0.004;entryY=0.611;entryDx=0;entryDy=0;entryPerimeter=0;labelBorderColor=default;" edge="1" parent="1" source="QJHk6vvVABnqYg-S65-f-5" target="QJHk6vvVABnqYg-S65-f-1">
          <mxGeometry relative="1" as="geometry">
            <mxPoint x="420" y="360" as="targetPoint" />
            <Array as="points">
              <mxPoint x="210" y="130" />
              <mxPoint x="420" y="130" />
              <mxPoint x="420" y="360" />
              <mxPoint x="591" y="360" />
            </Array>
          </mxGeometry>
        </mxCell>
        <mxCell id="QJHk6vvVABnqYg-S65-f-5" value="로그인" style="ellipse;whiteSpace=wrap;html=1;" vertex="1" parent="1">
          <mxGeometry x="150" y="10" width="120" height="80" as="geometry" />
        </mxCell>
        <mxCell id="QJHk6vvVABnqYg-S65-f-9" style="edgeStyle=orthogonalEdgeStyle;rounded=0;orthogonalLoop=1;jettySize=auto;html=1;" edge="1" parent="1" source="QJHk6vvVABnqYg-S65-f-7" target="QJHk6vvVABnqYg-S65-f-5">
          <mxGeometry relative="1" as="geometry" />
        </mxCell>
        <mxCell id="QJHk6vvVABnqYg-S65-f-7" value="실행" style="ellipse;whiteSpace=wrap;html=1;aspect=fixed;" vertex="1" parent="1">
          <mxGeometry x="10" y="10" width="80" height="80" as="geometry" />
        </mxCell>
        <mxCell id="QJHk6vvVABnqYg-S65-f-15" style="edgeStyle=orthogonalEdgeStyle;rounded=0;orthogonalLoop=1;jettySize=auto;html=1;" edge="1" parent="1" source="QJHk6vvVABnqYg-S65-f-13" target="QJHk6vvVABnqYg-S65-f-1">
          <mxGeometry relative="1" as="geometry" />
        </mxCell>
        <mxCell id="QJHk6vvVABnqYg-S65-f-13" value="회원가입" style="whiteSpace=wrap;html=1;aspect=fixed;" vertex="1" parent="1">
          <mxGeometry x="680" y="20" width="80" height="80" as="geometry" />
        </mxCell>
      </root>
    </mxGraphModel>
  </diagram>
</mxfile>
